<svg width="232" height="170" viewBox="0 0 232 170" fill="none" xmlns="http://www.w3.org/2000/svg">
<circle cx="16" cy="16" r="16" fill="#C4C4C4"/>
<circle cx="16" cy="62" r="16" fill="#C4C4C4"/>
<circle cx="16" cy="108" r="16" fill="#C4C4C4"/>
<circle cx="16" cy="154" r="16" fill="#C4C4C4"/>
<circle cx="66" cy="16" r="16" fill="#C4C4C4"/>
<circle cx="66" cy="62" r="16" fill="#C4C4C4"/>
<circle cx="66" cy="108" r="16" fill="#C4C4C4"/>
<circle cx="66" cy="154" r="16" fill="#C4C4C4"/>
<circle cx="116" cy="16" r="16" fill="#C4C4C4"/>
<circle cx="116" cy="62" r="16" fill="#C4C4C4"/>
<circle cx="116" cy="108" r="16" fill="#C4C4C4"/>
<circle cx="116" cy="154" r="16" fill="#C4C4C4"/>
<circle cx="166" cy="16" r="16" fill="#C4C4C4"/>
<circle cx="166" cy="62" r="16" fill="#C4C4C4"/>
<circle cx="166" cy="108" r="16" fill="#C4C4C4"/>
<circle cx="166" cy="154" r="16" fill="#C4C4C4"/>
<circle cx="216" cy="16" r="16" fill="#C4C4C4"/>
<circle cx="216" cy="62" r="16" fill="#C4C4C4"/>
<circle cx="216" cy="108" r="16" fill="#C4C4C4"/>
<circle cx="216" cy="154" r="16" fill="#C4C4C4"/>
</svg>
