<svg width="591" height="689" viewBox="0 0 591 689" fill="none" xmlns="http://www.w3.org/2000/svg">
<path d="M2.82843 295.5L295.5 2.82843L588.172 295.5L295.5 588.172L2.82843 295.5Z" stroke="#B8A151" stroke-width="4"/>
<path d="M2.82843 344.5L295.5 51.8284L588.172 344.5L295.5 637.172L2.82843 344.5Z" stroke="#B8A151" stroke-width="4"/>
<path d="M2.82843 393.5L295.5 100.828L588.172 393.5L295.5 686.172L2.82843 393.5Z" stroke="#B8A151" stroke-width="4"/>
<path d="M297.946 372.656L297.449 372.331H296.854C293.725 372.331 290.631 372.34 287.578 372.349C264.615 372.416 244.002 372.475 228.526 368.656C219.809 366.505 212.969 363.174 208.304 358.119C203.681 353.109 201 346.191 201 336.444C201 316.916 211.34 299.099 228.33 286.1C245.322 273.099 268.884 265 294.99 265C321.097 265 344.658 273.099 361.651 286.1C378.641 299.099 388.981 316.916 388.981 336.444C388.981 341.241 389.225 346.441 389.473 351.711C389.49 352.074 389.507 352.436 389.524 352.799C389.789 358.462 390.04 364.195 389.995 369.705C389.904 380.845 388.593 390.566 384.208 396.766C382.068 399.79 379.178 401.998 375.214 403.134C371.205 404.283 365.974 404.37 359.146 402.898C345.45 399.945 325.843 390.837 297.946 372.656Z" stroke="#B8A151" stroke-width="4"/>
<path d="M305.646 360.738L305.15 360.418H304.56C302.11 360.418 299.69 360.425 297.303 360.432C279.324 360.483 263.255 360.529 251.201 357.577C244.423 355.918 239.162 353.361 235.594 349.524C232.069 345.734 230 340.483 230 333.009C230 318.026 237.995 304.319 251.206 294.29C264.418 284.261 282.759 278 303.101 278C323.443 278 341.785 284.261 354.997 294.29C368.208 304.319 376.203 318.026 376.203 333.009C376.203 336.744 376.394 340.791 376.588 344.879C376.601 345.161 376.615 345.444 376.628 345.726C376.835 350.123 377.031 354.561 376.996 358.823C376.925 367.468 375.894 374.881 372.552 379.567C370.935 381.836 368.756 383.49 365.751 384.344C362.702 385.211 358.683 385.288 353.384 384.154C342.747 381.879 327.46 374.844 305.646 360.738Z" stroke="#B8A151" stroke-width="4"/>
</svg>
